<mxfile modified="2022-05-02T22:36:55.038Z" host="app.diagrams.net" agent="5.0 (Windows NT 10.0; Win64; x64) AppleWebKit/537.36 (KHTML, like Gecko) Chrome/100.0.4896.127 Safari/537.36 Edg/100.0.1185.50" etag="nvK9IWzEtj4BwHp2oRiz" compressed="false" version="17.5.0" type="google" pages="2">
  <diagram name="Security/Availability/Dynamic horizontal scalability" id="EIh5S4QbHgiRp6ejj0h5">
    <mxGraphModel grid="1" page="1" gridSize="10" guides="1" tooltips="1" connect="1" arrows="1" fold="1" pageScale="1" pageWidth="827" pageHeight="1169" math="0" shadow="0">
      <root>
        <mxCell id="0eBuyHXywiBfL8M9hoc1-0" />
        <mxCell id="0eBuyHXywiBfL8M9hoc1-1" parent="0eBuyHXywiBfL8M9hoc1-0" />
        <mxCell id="0eBuyHXywiBfL8M9hoc1-2" value="&lt;font style=&quot;font-size: 12px&quot;&gt;&lt;span style=&quot;font-size: 12px&quot;&gt;Diagram: Base&amp;nbsp;&lt;/span&gt;System&amp;nbsp;&lt;span style=&quot;font-size: 12px&quot;&gt;Logical Module -&amp;nbsp;&lt;/span&gt;Security - Horizontally scalable Service&lt;/font&gt;" style="text;strokeColor=none;fillColor=none;html=1;fontSize=24;fontStyle=2;verticalAlign=middle;align=left;shadow=0;glass=0;comic=0;opacity=30;fontColor=#808080;" parent="0eBuyHXywiBfL8M9hoc1-1" vertex="1">
          <mxGeometry x="120" y="780" width="20" height="20" as="geometry" />
        </mxCell>
        <mxCell id="0eBuyHXywiBfL8M9hoc1-3" style="edgeStyle=none;rounded=0;orthogonalLoop=1;jettySize=auto;html=1;entryX=0.5;entryY=0;entryDx=0;entryDy=0;entryPerimeter=0;startArrow=none;startFill=0;endArrow=none;endFill=0;" parent="0eBuyHXywiBfL8M9hoc1-1" source="iz07UP3W--9qN34AFOVH-5" target="0eBuyHXywiBfL8M9hoc1-25" edge="1">
          <mxGeometry relative="1" as="geometry" />
        </mxCell>
        <mxCell id="0eBuyHXywiBfL8M9hoc1-4" value="User&amp;nbsp;" style="shape=image;html=1;verticalAlign=top;verticalLabelPosition=bottom;labelBackgroundColor=#ffffff;imageAspect=0;aspect=fixed;image=https://cdn0.iconfinder.com/data/icons/elasto-online-store/26/00-ELASTOFONT-STORE-READY_user-128.png" parent="0eBuyHXywiBfL8M9hoc1-1" vertex="1">
          <mxGeometry x="120.00000000000003" y="170" width="20" height="20" as="geometry" />
        </mxCell>
        <mxCell id="0eBuyHXywiBfL8M9hoc1-5" style="edgeStyle=none;rounded=0;orthogonalLoop=1;jettySize=auto;html=1;entryX=0.5;entryY=0;entryDx=0;entryDy=0;entryPerimeter=0;startArrow=none;startFill=0;endArrow=none;endFill=0;dashed=1;" parent="0eBuyHXywiBfL8M9hoc1-1" source="0eBuyHXywiBfL8M9hoc1-6" target="0eBuyHXywiBfL8M9hoc1-30" edge="1">
          <mxGeometry relative="1" as="geometry" />
        </mxCell>
        <mxCell id="0eBuyHXywiBfL8M9hoc1-6" value="" style="pointerEvents=1;shadow=0;dashed=0;html=1;strokeColor=none;labelPosition=center;verticalLabelPosition=bottom;verticalAlign=top;outlineConnect=0;align=center;shape=mxgraph.office.servers.virtual_web_server;fillColor=#2072B8;" parent="0eBuyHXywiBfL8M9hoc1-1" vertex="1">
          <mxGeometry x="316.00000000000006" y="170" width="20" height="20" as="geometry" />
        </mxCell>
        <mxCell id="0eBuyHXywiBfL8M9hoc1-7" style="edgeStyle=none;rounded=0;orthogonalLoop=1;jettySize=auto;html=1;entryX=0.5;entryY=0;entryDx=0;entryDy=0;entryPerimeter=0;startArrow=none;startFill=0;endArrow=none;endFill=0;" parent="0eBuyHXywiBfL8M9hoc1-1" source="0eBuyHXywiBfL8M9hoc1-8" target="0eBuyHXywiBfL8M9hoc1-30" edge="1">
          <mxGeometry relative="1" as="geometry" />
        </mxCell>
        <mxCell id="0eBuyHXywiBfL8M9hoc1-8" value="" style="aspect=fixed;pointerEvents=1;shadow=0;dashed=0;html=1;strokeColor=none;labelPosition=center;verticalLabelPosition=bottom;verticalAlign=top;align=center;fillColor=#00188D;shape=mxgraph.mscae.enterprise.web_server" parent="0eBuyHXywiBfL8M9hoc1-1" vertex="1">
          <mxGeometry x="318" y="130" width="20" height="20" as="geometry" />
        </mxCell>
        <mxCell id="0eBuyHXywiBfL8M9hoc1-9" style="edgeStyle=none;rounded=0;orthogonalLoop=1;jettySize=auto;html=1;entryX=0.5;entryY=0;entryDx=0;entryDy=0;entryPerimeter=0;startArrow=none;startFill=0;endArrow=none;endFill=0;dashed=1;" parent="0eBuyHXywiBfL8M9hoc1-1" source="0eBuyHXywiBfL8M9hoc1-10" target="0eBuyHXywiBfL8M9hoc1-30" edge="1">
          <mxGeometry relative="1" as="geometry" />
        </mxCell>
        <mxCell id="0eBuyHXywiBfL8M9hoc1-10" value="" style="pointerEvents=1;shadow=0;dashed=0;html=1;strokeColor=none;labelPosition=center;verticalLabelPosition=bottom;verticalAlign=top;outlineConnect=0;align=center;shape=mxgraph.office.servers.virtual_web_server;fillColor=#2072B8;" parent="0eBuyHXywiBfL8M9hoc1-1" vertex="1">
          <mxGeometry x="318" y="210" width="20" height="20" as="geometry" />
        </mxCell>
        <mxCell id="0eBuyHXywiBfL8M9hoc1-11" style="edgeStyle=none;rounded=0;orthogonalLoop=1;jettySize=auto;html=1;entryX=0;entryY=0.5;entryDx=0;entryDy=0;entryPerimeter=0;startArrow=none;startFill=0;endArrow=none;endFill=0;dashed=1;" parent="0eBuyHXywiBfL8M9hoc1-1" source="0eBuyHXywiBfL8M9hoc1-13" target="0eBuyHXywiBfL8M9hoc1-34" edge="1">
          <mxGeometry relative="1" as="geometry" />
        </mxCell>
        <mxCell id="0eBuyHXywiBfL8M9hoc1-12" style="edgeStyle=none;rounded=0;orthogonalLoop=1;jettySize=auto;html=1;entryX=0;entryY=0.5;entryDx=0;entryDy=0;entryPerimeter=0;startArrow=none;startFill=0;endArrow=none;endFill=0;dashed=1;" parent="0eBuyHXywiBfL8M9hoc1-1" source="0eBuyHXywiBfL8M9hoc1-13" target="0eBuyHXywiBfL8M9hoc1-33" edge="1">
          <mxGeometry relative="1" as="geometry" />
        </mxCell>
        <mxCell id="0eBuyHXywiBfL8M9hoc1-13" value="" style="pointerEvents=1;shadow=0;dashed=0;html=1;strokeColor=none;labelPosition=center;verticalLabelPosition=bottom;verticalAlign=top;outlineConnect=0;align=center;shape=mxgraph.office.servers.virtual_web_server;fillColor=#2072B8;" parent="0eBuyHXywiBfL8M9hoc1-1" vertex="1">
          <mxGeometry x="480" y="170" width="20" height="20" as="geometry" />
        </mxCell>
        <mxCell id="0eBuyHXywiBfL8M9hoc1-14" style="edgeStyle=none;rounded=0;orthogonalLoop=1;jettySize=auto;html=1;entryX=0;entryY=0.5;entryDx=0;entryDy=0;entryPerimeter=0;startArrow=none;startFill=0;endArrow=none;endFill=0;exitX=0.64;exitY=0.49;exitDx=0;exitDy=0;exitPerimeter=0;" parent="0eBuyHXywiBfL8M9hoc1-1" source="0eBuyHXywiBfL8M9hoc1-15" target="0eBuyHXywiBfL8M9hoc1-34" edge="1">
          <mxGeometry relative="1" as="geometry" />
        </mxCell>
        <mxCell id="0eBuyHXywiBfL8M9hoc1-15" value="" style="aspect=fixed;pointerEvents=1;shadow=0;dashed=0;html=1;strokeColor=none;labelPosition=center;verticalLabelPosition=bottom;verticalAlign=top;align=center;fillColor=#00188D;shape=mxgraph.mscae.enterprise.web_server" parent="0eBuyHXywiBfL8M9hoc1-1" vertex="1">
          <mxGeometry x="480" y="130" width="20" height="20" as="geometry" />
        </mxCell>
        <mxCell id="0eBuyHXywiBfL8M9hoc1-16" style="edgeStyle=none;rounded=0;orthogonalLoop=1;jettySize=auto;html=1;entryX=0;entryY=0.5;entryDx=0;entryDy=0;entryPerimeter=0;startArrow=none;startFill=0;endArrow=none;endFill=0;dashed=1;" parent="0eBuyHXywiBfL8M9hoc1-1" source="0eBuyHXywiBfL8M9hoc1-18" target="0eBuyHXywiBfL8M9hoc1-34" edge="1">
          <mxGeometry relative="1" as="geometry" />
        </mxCell>
        <mxCell id="0eBuyHXywiBfL8M9hoc1-17" style="edgeStyle=none;rounded=0;orthogonalLoop=1;jettySize=auto;html=1;startArrow=none;startFill=0;endArrow=none;endFill=0;dashed=1;entryX=0;entryY=0.5;entryDx=0;entryDy=0;entryPerimeter=0;" parent="0eBuyHXywiBfL8M9hoc1-1" source="0eBuyHXywiBfL8M9hoc1-18" edge="1" target="0eBuyHXywiBfL8M9hoc1-33">
          <mxGeometry relative="1" as="geometry">
            <mxPoint x="390" y="680" as="targetPoint" />
          </mxGeometry>
        </mxCell>
        <mxCell id="0eBuyHXywiBfL8M9hoc1-18" value="" style="pointerEvents=1;shadow=0;dashed=0;html=1;strokeColor=none;labelPosition=center;verticalLabelPosition=bottom;verticalAlign=top;outlineConnect=0;align=center;shape=mxgraph.office.servers.virtual_web_server;fillColor=#2072B8;" vertex="1" parent="0eBuyHXywiBfL8M9hoc1-1">
          <mxGeometry x="480" y="210" width="20" height="20" as="geometry" />
        </mxCell>
        <mxCell id="0eBuyHXywiBfL8M9hoc1-22" style="edgeStyle=none;rounded=0;orthogonalLoop=1;jettySize=auto;html=1;entryX=0.399;entryY=0.005;entryDx=0;entryDy=0;entryPerimeter=0;startArrow=none;startFill=0;endArrow=none;endFill=0;" parent="0eBuyHXywiBfL8M9hoc1-1" source="0eBuyHXywiBfL8M9hoc1-25" target="0eBuyHXywiBfL8M9hoc1-8" edge="1">
          <mxGeometry relative="1" as="geometry" />
        </mxCell>
        <mxCell id="0eBuyHXywiBfL8M9hoc1-23" style="edgeStyle=none;rounded=0;orthogonalLoop=1;jettySize=auto;html=1;dashed=1;startArrow=none;startFill=0;endArrow=none;endFill=0;" parent="0eBuyHXywiBfL8M9hoc1-1" source="0eBuyHXywiBfL8M9hoc1-25" target="0eBuyHXywiBfL8M9hoc1-10" edge="1">
          <mxGeometry relative="1" as="geometry" />
        </mxCell>
        <mxCell id="0eBuyHXywiBfL8M9hoc1-24" style="edgeStyle=none;rounded=0;orthogonalLoop=1;jettySize=auto;html=1;dashed=1;startArrow=none;startFill=0;endArrow=none;endFill=0;" parent="0eBuyHXywiBfL8M9hoc1-1" source="0eBuyHXywiBfL8M9hoc1-25" target="0eBuyHXywiBfL8M9hoc1-6" edge="1">
          <mxGeometry relative="1" as="geometry" />
        </mxCell>
        <mxCell id="0eBuyHXywiBfL8M9hoc1-25" value="Load Balancer" style="aspect=fixed;pointerEvents=1;shadow=0;dashed=0;html=1;strokeColor=none;labelPosition=center;verticalLabelPosition=bottom;verticalAlign=top;align=center;fillColor=#00188D;shape=mxgraph.azure.load_balancer_generic;rotation=-90;" parent="0eBuyHXywiBfL8M9hoc1-1" vertex="1">
          <mxGeometry x="240" y="170" width="20" height="20" as="geometry" />
        </mxCell>
        <mxCell id="0eBuyHXywiBfL8M9hoc1-26" style="edgeStyle=none;rounded=0;orthogonalLoop=1;jettySize=auto;html=1;entryX=0.366;entryY=0.003;entryDx=0;entryDy=0;entryPerimeter=0;startArrow=none;startFill=0;endArrow=none;endFill=0;" parent="0eBuyHXywiBfL8M9hoc1-1" source="0eBuyHXywiBfL8M9hoc1-30" target="0eBuyHXywiBfL8M9hoc1-15" edge="1">
          <mxGeometry relative="1" as="geometry" />
        </mxCell>
        <mxCell id="0eBuyHXywiBfL8M9hoc1-27" style="edgeStyle=none;rounded=0;orthogonalLoop=1;jettySize=auto;html=1;startArrow=none;startFill=0;endArrow=none;endFill=0;dashed=1;" parent="0eBuyHXywiBfL8M9hoc1-1" source="0eBuyHXywiBfL8M9hoc1-30" target="0eBuyHXywiBfL8M9hoc1-13" edge="1">
          <mxGeometry relative="1" as="geometry" />
        </mxCell>
        <mxCell id="0eBuyHXywiBfL8M9hoc1-28" style="edgeStyle=none;rounded=0;orthogonalLoop=1;jettySize=auto;html=1;startArrow=none;startFill=0;endArrow=none;endFill=0;dashed=1;" parent="0eBuyHXywiBfL8M9hoc1-1" source="0eBuyHXywiBfL8M9hoc1-30" target="0eBuyHXywiBfL8M9hoc1-18" edge="1">
          <mxGeometry relative="1" as="geometry" />
        </mxCell>
        <mxCell id="0eBuyHXywiBfL8M9hoc1-30" value="Load Balancer" style="aspect=fixed;pointerEvents=1;shadow=0;dashed=0;html=1;strokeColor=none;labelPosition=center;verticalLabelPosition=bottom;verticalAlign=top;align=center;fillColor=#00188D;shape=mxgraph.azure.load_balancer_generic;rotation=-90;" parent="0eBuyHXywiBfL8M9hoc1-1" vertex="1">
          <mxGeometry x="401.09999999999997" y="170" width="20" height="20" as="geometry" />
        </mxCell>
        <mxCell id="0eBuyHXywiBfL8M9hoc1-31" value="Dynamically allocated service servers (only as needed)" style="text;html=1;strokeColor=none;fillColor=none;align=center;verticalAlign=middle;whiteSpace=wrap;rounded=0;" parent="0eBuyHXywiBfL8M9hoc1-1" vertex="1">
          <mxGeometry x="430" y="280" width="120" height="20" as="geometry" />
        </mxCell>
        <mxCell id="0eBuyHXywiBfL8M9hoc1-32" value="Dynamically allocated Service client servers (only as needed)" style="text;html=1;strokeColor=none;fillColor=none;align=center;verticalAlign=middle;whiteSpace=wrap;rounded=0;" parent="0eBuyHXywiBfL8M9hoc1-1" vertex="1">
          <mxGeometry x="270" y="280" width="120" height="20" as="geometry" />
        </mxCell>
        <mxCell id="0eBuyHXywiBfL8M9hoc1-33" value="Database server" style="aspect=fixed;pointerEvents=1;shadow=0;dashed=0;html=1;strokeColor=none;labelPosition=center;verticalLabelPosition=bottom;verticalAlign=top;align=center;fillColor=#00188D;shape=mxgraph.mscae.enterprise.database_server" parent="0eBuyHXywiBfL8M9hoc1-1" vertex="1">
          <mxGeometry x="600" y="210" width="20" height="20" as="geometry" />
        </mxCell>
        <mxCell id="0eBuyHXywiBfL8M9hoc1-34" value="cache server" style="aspect=fixed;pointerEvents=1;shadow=0;dashed=0;html=1;strokeColor=none;labelPosition=center;verticalLabelPosition=bottom;verticalAlign=top;align=center;fillColor=#00188D;shape=mxgraph.mscae.enterprise.server_generic" parent="0eBuyHXywiBfL8M9hoc1-1" vertex="1">
          <mxGeometry x="600" y="130" width="20" height="20" as="geometry" />
        </mxCell>
        <mxCell id="0eBuyHXywiBfL8M9hoc1-35" style="edgeStyle=none;rounded=0;orthogonalLoop=1;jettySize=auto;html=1;entryX=0;entryY=0.5;entryDx=0;entryDy=0;entryPerimeter=0;startArrow=none;startFill=0;endArrow=none;endFill=0;" parent="0eBuyHXywiBfL8M9hoc1-1" target="0eBuyHXywiBfL8M9hoc1-33" edge="1">
          <mxGeometry relative="1" as="geometry">
            <mxPoint x="500" y="140" as="sourcePoint" />
            <mxPoint x="262" y="690" as="targetPoint" />
          </mxGeometry>
        </mxCell>
        <mxCell id="0eBuyHXywiBfL8M9hoc1-36" style="edgeStyle=none;rounded=0;orthogonalLoop=1;jettySize=auto;html=1;entryX=0.532;entryY=0.738;entryDx=0;entryDy=0;entryPerimeter=0;dashed=1;startArrow=none;startFill=0;endArrow=none;endFill=0;" parent="0eBuyHXywiBfL8M9hoc1-1" source="0eBuyHXywiBfL8M9hoc1-25" target="0eBuyHXywiBfL8M9hoc1-25" edge="1">
          <mxGeometry relative="1" as="geometry" />
        </mxCell>
        <mxCell id="iz07UP3W--9qN34AFOVH-5" value="" style="pointerEvents=1;shadow=0;dashed=0;html=1;strokeColor=none;fillColor=#4495D1;labelPosition=center;verticalLabelPosition=bottom;verticalAlign=top;align=center;outlineConnect=0;shape=mxgraph.veeam.laptop;" vertex="1" parent="0eBuyHXywiBfL8M9hoc1-1">
          <mxGeometry x="170" y="210" width="20" height="20" as="geometry" />
        </mxCell>
        <mxCell id="iz07UP3W--9qN34AFOVH-8" value="" style="sketch=0;pointerEvents=1;shadow=0;dashed=0;html=1;strokeColor=none;fillColor=#505050;labelPosition=center;verticalLabelPosition=bottom;verticalAlign=top;outlineConnect=0;align=center;shape=mxgraph.office.devices.cell_phone_iphone_proportional;" vertex="1" parent="0eBuyHXywiBfL8M9hoc1-1">
          <mxGeometry x="173.5" y="170" width="12" height="20" as="geometry" />
        </mxCell>
        <mxCell id="iz07UP3W--9qN34AFOVH-9" style="edgeStyle=none;rounded=0;orthogonalLoop=1;jettySize=auto;html=1;entryX=0.5;entryY=0;entryDx=0;entryDy=0;entryPerimeter=0;startArrow=none;startFill=0;endArrow=none;endFill=0;" edge="1" parent="0eBuyHXywiBfL8M9hoc1-1" source="iz07UP3W--9qN34AFOVH-8" target="0eBuyHXywiBfL8M9hoc1-25">
          <mxGeometry relative="1" as="geometry">
            <mxPoint x="200" y="223.33333333333337" as="sourcePoint" />
            <mxPoint x="250" y="190" as="targetPoint" />
          </mxGeometry>
        </mxCell>
        <mxCell id="iz07UP3W--9qN34AFOVH-10" style="edgeStyle=none;rounded=0;orthogonalLoop=1;jettySize=auto;html=1;entryX=0.5;entryY=0;entryDx=0;entryDy=0;entryPerimeter=0;startArrow=none;startFill=0;endArrow=none;endFill=0;" edge="1" parent="0eBuyHXywiBfL8M9hoc1-1" target="0eBuyHXywiBfL8M9hoc1-25">
          <mxGeometry relative="1" as="geometry">
            <mxPoint x="190" y="146.66666666666663" as="sourcePoint" />
            <mxPoint x="250" y="190" as="targetPoint" />
          </mxGeometry>
        </mxCell>
        <mxCell id="iz07UP3W--9qN34AFOVH-11" value="" style="shape=image;html=1;verticalAlign=top;verticalLabelPosition=bottom;labelBackgroundColor=#ffffff;imageAspect=0;aspect=fixed;image=https://cdn4.iconfinder.com/data/icons/48-bubbles/48/36.Watch-128.png;fillColor=#006600;" vertex="1" parent="0eBuyHXywiBfL8M9hoc1-1">
          <mxGeometry x="170" y="132" width="20" height="20" as="geometry" />
        </mxCell>
      </root>
    </mxGraphModel>
  </diagram>
  <diagram name="Security/Availability/Dynamic horizontal scalability" id="nQb35GtMOk1o5DeH7LcT">
    <mxGraphModel grid="1" page="1" gridSize="10" guides="1" tooltips="1" connect="1" arrows="1" fold="1" pageScale="1" pageWidth="827" pageHeight="1169" math="0" shadow="0">
      <root>
        <mxCell id="GAgwbhFQg9J5h7E9KrRV-0" />
        <mxCell id="GAgwbhFQg9J5h7E9KrRV-1" parent="GAgwbhFQg9J5h7E9KrRV-0" />
        <mxCell id="GAgwbhFQg9J5h7E9KrRV-2" value="&lt;font style=&quot;font-size: 12px&quot;&gt;&lt;span style=&quot;font-size: 12px&quot;&gt;Diagram: Base&amp;nbsp;&lt;/span&gt;System&amp;nbsp;&lt;span style=&quot;font-size: 12px&quot;&gt;Logical Module -&amp;nbsp;&lt;/span&gt;Security - Horizontally scalable Service&lt;/font&gt;" style="text;strokeColor=none;fillColor=none;html=1;fontSize=24;fontStyle=2;verticalAlign=middle;align=left;shadow=0;glass=0;comic=0;opacity=30;fontColor=#808080;" parent="GAgwbhFQg9J5h7E9KrRV-1" vertex="1">
          <mxGeometry x="120" y="780" width="20" height="20" as="geometry" />
        </mxCell>
        <mxCell id="GAgwbhFQg9J5h7E9KrRV-75" style="edgeStyle=none;rounded=0;orthogonalLoop=1;jettySize=auto;html=1;entryX=0.5;entryY=0;entryDx=0;entryDy=0;entryPerimeter=0;startArrow=none;startFill=0;endArrow=none;endFill=0;" parent="GAgwbhFQg9J5h7E9KrRV-1" source="GAgwbhFQg9J5h7E9KrRV-39" target="GAgwbhFQg9J5h7E9KrRV-49" edge="1">
          <mxGeometry relative="1" as="geometry" />
        </mxCell>
        <mxCell id="GAgwbhFQg9J5h7E9KrRV-39" value="User&amp;nbsp;" style="shape=image;html=1;verticalAlign=top;verticalLabelPosition=bottom;labelBackgroundColor=#ffffff;imageAspect=0;aspect=fixed;image=https://cdn0.iconfinder.com/data/icons/elasto-online-store/26/00-ELASTOFONT-STORE-READY_user-128.png" parent="GAgwbhFQg9J5h7E9KrRV-1" vertex="1">
          <mxGeometry x="290.1" y="210" width="20" height="20" as="geometry" />
        </mxCell>
        <mxCell id="GAgwbhFQg9J5h7E9KrRV-69" style="edgeStyle=none;rounded=0;orthogonalLoop=1;jettySize=auto;html=1;entryX=0.5;entryY=0;entryDx=0;entryDy=0;entryPerimeter=0;startArrow=none;startFill=0;endArrow=none;endFill=0;dashed=1;" parent="GAgwbhFQg9J5h7E9KrRV-1" source="GAgwbhFQg9J5h7E9KrRV-41" target="GAgwbhFQg9J5h7E9KrRV-50" edge="1">
          <mxGeometry relative="1" as="geometry" />
        </mxCell>
        <mxCell id="GAgwbhFQg9J5h7E9KrRV-41" value="" style="pointerEvents=1;shadow=0;dashed=0;html=1;strokeColor=none;labelPosition=center;verticalLabelPosition=bottom;verticalAlign=top;outlineConnect=0;align=center;shape=mxgraph.office.servers.virtual_web_server;fillColor=#2072B8;" parent="GAgwbhFQg9J5h7E9KrRV-1" vertex="1">
          <mxGeometry x="293.1" y="330" width="20" height="20" as="geometry" />
        </mxCell>
        <mxCell id="GAgwbhFQg9J5h7E9KrRV-64" style="edgeStyle=none;rounded=0;orthogonalLoop=1;jettySize=auto;html=1;entryX=0.5;entryY=0;entryDx=0;entryDy=0;entryPerimeter=0;startArrow=none;startFill=0;endArrow=none;endFill=0;" parent="GAgwbhFQg9J5h7E9KrRV-1" source="GAgwbhFQg9J5h7E9KrRV-42" target="GAgwbhFQg9J5h7E9KrRV-50" edge="1">
          <mxGeometry relative="1" as="geometry" />
        </mxCell>
        <mxCell id="GAgwbhFQg9J5h7E9KrRV-42" value="" style="aspect=fixed;pointerEvents=1;shadow=0;dashed=0;html=1;strokeColor=none;labelPosition=center;verticalLabelPosition=bottom;verticalAlign=top;align=center;fillColor=#00188D;shape=mxgraph.mscae.enterprise.web_server" parent="GAgwbhFQg9J5h7E9KrRV-1" vertex="1">
          <mxGeometry x="250" y="330" width="20" height="20" as="geometry" />
        </mxCell>
        <mxCell id="GAgwbhFQg9J5h7E9KrRV-70" style="edgeStyle=none;rounded=0;orthogonalLoop=1;jettySize=auto;html=1;entryX=0.5;entryY=0;entryDx=0;entryDy=0;entryPerimeter=0;startArrow=none;startFill=0;endArrow=none;endFill=0;dashed=1;" parent="GAgwbhFQg9J5h7E9KrRV-1" source="GAgwbhFQg9J5h7E9KrRV-43" target="GAgwbhFQg9J5h7E9KrRV-50" edge="1">
          <mxGeometry relative="1" as="geometry" />
        </mxCell>
        <mxCell id="GAgwbhFQg9J5h7E9KrRV-43" value="" style="pointerEvents=1;shadow=0;dashed=0;html=1;strokeColor=none;labelPosition=center;verticalLabelPosition=bottom;verticalAlign=top;outlineConnect=0;align=center;shape=mxgraph.office.servers.virtual_web_server;fillColor=#2072B8;" parent="GAgwbhFQg9J5h7E9KrRV-1" vertex="1">
          <mxGeometry x="330" y="330" width="20" height="20" as="geometry" />
        </mxCell>
        <mxCell id="GAgwbhFQg9J5h7E9KrRV-58" style="edgeStyle=none;rounded=0;orthogonalLoop=1;jettySize=auto;html=1;entryX=0.5;entryY=0;entryDx=0;entryDy=0;entryPerimeter=0;startArrow=none;startFill=0;endArrow=none;endFill=0;dashed=1;" parent="GAgwbhFQg9J5h7E9KrRV-1" source="GAgwbhFQg9J5h7E9KrRV-45" target="GAgwbhFQg9J5h7E9KrRV-54" edge="1">
          <mxGeometry relative="1" as="geometry" />
        </mxCell>
        <mxCell id="GAgwbhFQg9J5h7E9KrRV-61" style="edgeStyle=none;rounded=0;orthogonalLoop=1;jettySize=auto;html=1;entryX=0.5;entryY=0;entryDx=0;entryDy=0;entryPerimeter=0;startArrow=none;startFill=0;endArrow=none;endFill=0;dashed=1;" parent="GAgwbhFQg9J5h7E9KrRV-1" source="GAgwbhFQg9J5h7E9KrRV-45" target="GAgwbhFQg9J5h7E9KrRV-53" edge="1">
          <mxGeometry relative="1" as="geometry" />
        </mxCell>
        <mxCell id="GAgwbhFQg9J5h7E9KrRV-45" value="" style="pointerEvents=1;shadow=0;dashed=0;html=1;strokeColor=none;labelPosition=center;verticalLabelPosition=bottom;verticalAlign=top;outlineConnect=0;align=center;shape=mxgraph.office.servers.virtual_web_server;fillColor=#2072B8;" parent="GAgwbhFQg9J5h7E9KrRV-1" vertex="1">
          <mxGeometry x="290" y="430" width="20" height="20" as="geometry" />
        </mxCell>
        <mxCell id="GAgwbhFQg9J5h7E9KrRV-56" style="edgeStyle=none;rounded=0;orthogonalLoop=1;jettySize=auto;html=1;entryX=0.5;entryY=0;entryDx=0;entryDy=0;entryPerimeter=0;startArrow=none;startFill=0;endArrow=none;endFill=0;exitX=0.5;exitY=1;exitDx=0;exitDy=0;exitPerimeter=0;" parent="GAgwbhFQg9J5h7E9KrRV-1" source="GAgwbhFQg9J5h7E9KrRV-46" target="GAgwbhFQg9J5h7E9KrRV-54" edge="1">
          <mxGeometry relative="1" as="geometry" />
        </mxCell>
        <mxCell id="GAgwbhFQg9J5h7E9KrRV-46" value="" style="aspect=fixed;pointerEvents=1;shadow=0;dashed=0;html=1;strokeColor=none;labelPosition=center;verticalLabelPosition=bottom;verticalAlign=top;align=center;fillColor=#00188D;shape=mxgraph.mscae.enterprise.web_server" parent="GAgwbhFQg9J5h7E9KrRV-1" vertex="1">
          <mxGeometry x="250" y="430" width="20" height="20" as="geometry" />
        </mxCell>
        <mxCell id="GAgwbhFQg9J5h7E9KrRV-60" style="edgeStyle=none;rounded=0;orthogonalLoop=1;jettySize=auto;html=1;entryX=0.5;entryY=0;entryDx=0;entryDy=0;entryPerimeter=0;startArrow=none;startFill=0;endArrow=none;endFill=0;dashed=1;" parent="GAgwbhFQg9J5h7E9KrRV-1" source="GAgwbhFQg9J5h7E9KrRV-47" target="GAgwbhFQg9J5h7E9KrRV-54" edge="1">
          <mxGeometry relative="1" as="geometry" />
        </mxCell>
        <mxCell id="GAgwbhFQg9J5h7E9KrRV-62" style="edgeStyle=none;rounded=0;orthogonalLoop=1;jettySize=auto;html=1;startArrow=none;startFill=0;endArrow=none;endFill=0;dashed=1;entryX=0.5;entryY=0;entryDx=0;entryDy=0;entryPerimeter=0;" parent="GAgwbhFQg9J5h7E9KrRV-1" source="GAgwbhFQg9J5h7E9KrRV-47" edge="1" target="GAgwbhFQg9J5h7E9KrRV-53">
          <mxGeometry relative="1" as="geometry">
            <mxPoint x="360" y="660" as="targetPoint" />
          </mxGeometry>
        </mxCell>
        <mxCell id="GAgwbhFQg9J5h7E9KrRV-47" value="" style="pointerEvents=1;shadow=0;dashed=0;html=1;strokeColor=none;labelPosition=center;verticalLabelPosition=bottom;verticalAlign=top;outlineConnect=0;align=center;shape=mxgraph.office.servers.virtual_web_server;fillColor=#2072B8;" parent="GAgwbhFQg9J5h7E9KrRV-1" vertex="1">
          <mxGeometry x="330" y="430" width="20" height="20" as="geometry" />
        </mxCell>
        <mxCell id="GAgwbhFQg9J5h7E9KrRV-71" style="edgeStyle=none;rounded=0;orthogonalLoop=1;jettySize=auto;html=1;entryX=0.399;entryY=0.005;entryDx=0;entryDy=0;entryPerimeter=0;startArrow=none;startFill=0;endArrow=none;endFill=0;" parent="GAgwbhFQg9J5h7E9KrRV-1" source="GAgwbhFQg9J5h7E9KrRV-49" target="GAgwbhFQg9J5h7E9KrRV-42" edge="1">
          <mxGeometry relative="1" as="geometry" />
        </mxCell>
        <mxCell id="GAgwbhFQg9J5h7E9KrRV-73" style="edgeStyle=none;rounded=0;orthogonalLoop=1;jettySize=auto;html=1;dashed=1;startArrow=none;startFill=0;endArrow=none;endFill=0;" parent="GAgwbhFQg9J5h7E9KrRV-1" source="GAgwbhFQg9J5h7E9KrRV-49" target="GAgwbhFQg9J5h7E9KrRV-43" edge="1">
          <mxGeometry relative="1" as="geometry" />
        </mxCell>
        <mxCell id="GAgwbhFQg9J5h7E9KrRV-74" style="edgeStyle=none;rounded=0;orthogonalLoop=1;jettySize=auto;html=1;dashed=1;startArrow=none;startFill=0;endArrow=none;endFill=0;" parent="GAgwbhFQg9J5h7E9KrRV-1" source="GAgwbhFQg9J5h7E9KrRV-49" target="GAgwbhFQg9J5h7E9KrRV-41" edge="1">
          <mxGeometry relative="1" as="geometry" />
        </mxCell>
        <mxCell id="GAgwbhFQg9J5h7E9KrRV-49" value="Load Balancer" style="aspect=fixed;pointerEvents=1;shadow=0;dashed=0;html=1;strokeColor=none;labelPosition=center;verticalLabelPosition=bottom;verticalAlign=top;align=center;fillColor=#00188D;shape=mxgraph.azure.load_balancer_generic" parent="GAgwbhFQg9J5h7E9KrRV-1" vertex="1">
          <mxGeometry x="290" y="270" width="20" height="20" as="geometry" />
        </mxCell>
        <mxCell id="GAgwbhFQg9J5h7E9KrRV-65" style="edgeStyle=none;rounded=0;orthogonalLoop=1;jettySize=auto;html=1;entryX=0.366;entryY=0.003;entryDx=0;entryDy=0;entryPerimeter=0;startArrow=none;startFill=0;endArrow=none;endFill=0;" parent="GAgwbhFQg9J5h7E9KrRV-1" source="GAgwbhFQg9J5h7E9KrRV-50" target="GAgwbhFQg9J5h7E9KrRV-46" edge="1">
          <mxGeometry relative="1" as="geometry" />
        </mxCell>
        <mxCell id="GAgwbhFQg9J5h7E9KrRV-66" style="edgeStyle=none;rounded=0;orthogonalLoop=1;jettySize=auto;html=1;startArrow=none;startFill=0;endArrow=none;endFill=0;dashed=1;" parent="GAgwbhFQg9J5h7E9KrRV-1" source="GAgwbhFQg9J5h7E9KrRV-50" target="GAgwbhFQg9J5h7E9KrRV-45" edge="1">
          <mxGeometry relative="1" as="geometry" />
        </mxCell>
        <mxCell id="GAgwbhFQg9J5h7E9KrRV-67" style="edgeStyle=none;rounded=0;orthogonalLoop=1;jettySize=auto;html=1;startArrow=none;startFill=0;endArrow=none;endFill=0;dashed=1;" parent="GAgwbhFQg9J5h7E9KrRV-1" source="GAgwbhFQg9J5h7E9KrRV-50" target="GAgwbhFQg9J5h7E9KrRV-47" edge="1">
          <mxGeometry relative="1" as="geometry" />
        </mxCell>
        <mxCell id="GAgwbhFQg9J5h7E9KrRV-50" value="Load Balancer" style="aspect=fixed;pointerEvents=1;shadow=0;dashed=0;html=1;strokeColor=none;labelPosition=center;verticalLabelPosition=bottom;verticalAlign=top;align=center;fillColor=#00188D;shape=mxgraph.azure.load_balancer_generic" parent="GAgwbhFQg9J5h7E9KrRV-1" vertex="1">
          <mxGeometry x="290" y="370" width="20" height="20" as="geometry" />
        </mxCell>
        <mxCell id="GAgwbhFQg9J5h7E9KrRV-51" value="Dynamically allocated service servers (only as needed)" style="text;html=1;strokeColor=none;fillColor=none;align=center;verticalAlign=middle;whiteSpace=wrap;rounded=0;" parent="GAgwbhFQg9J5h7E9KrRV-1" vertex="1">
          <mxGeometry x="190" y="455" width="20" height="20" as="geometry" />
        </mxCell>
        <mxCell id="GAgwbhFQg9J5h7E9KrRV-52" value="Dynamically allocated Service client servers (only as needed)" style="text;html=1;strokeColor=none;fillColor=none;align=center;verticalAlign=middle;whiteSpace=wrap;rounded=0;" parent="GAgwbhFQg9J5h7E9KrRV-1" vertex="1">
          <mxGeometry x="190" y="335" width="20" height="20" as="geometry" />
        </mxCell>
        <mxCell id="GAgwbhFQg9J5h7E9KrRV-53" value="Database &lt;br&gt;server" style="aspect=fixed;pointerEvents=1;shadow=0;dashed=0;html=1;strokeColor=none;labelPosition=center;verticalLabelPosition=bottom;verticalAlign=top;align=center;fillColor=#00188D;shape=mxgraph.mscae.enterprise.database_server" parent="GAgwbhFQg9J5h7E9KrRV-1" vertex="1">
          <mxGeometry x="330" y="510" width="20" height="20" as="geometry" />
        </mxCell>
        <mxCell id="GAgwbhFQg9J5h7E9KrRV-54" value="cache &lt;br&gt;server" style="aspect=fixed;pointerEvents=1;shadow=0;dashed=0;html=1;strokeColor=none;labelPosition=center;verticalLabelPosition=bottom;verticalAlign=top;align=center;fillColor=#00188D;shape=mxgraph.mscae.enterprise.server_generic" parent="GAgwbhFQg9J5h7E9KrRV-1" vertex="1">
          <mxGeometry x="250" y="510" width="20" height="20" as="geometry" />
        </mxCell>
        <mxCell id="GAgwbhFQg9J5h7E9KrRV-57" style="edgeStyle=none;rounded=0;orthogonalLoop=1;jettySize=auto;html=1;entryX=0.5;entryY=0;entryDx=0;entryDy=0;entryPerimeter=0;startArrow=none;startFill=0;endArrow=none;endFill=0;exitX=0.5;exitY=1;exitDx=0;exitDy=0;exitPerimeter=0;" parent="GAgwbhFQg9J5h7E9KrRV-1" source="GAgwbhFQg9J5h7E9KrRV-46" target="GAgwbhFQg9J5h7E9KrRV-53" edge="1">
          <mxGeometry relative="1" as="geometry">
            <mxPoint x="198.3478260869565" y="580" as="sourcePoint" />
            <mxPoint x="232" y="670" as="targetPoint" />
          </mxGeometry>
        </mxCell>
        <mxCell id="GAgwbhFQg9J5h7E9KrRV-72" style="edgeStyle=none;rounded=0;orthogonalLoop=1;jettySize=auto;html=1;entryX=0.532;entryY=0.738;entryDx=0;entryDy=0;entryPerimeter=0;dashed=1;startArrow=none;startFill=0;endArrow=none;endFill=0;" parent="GAgwbhFQg9J5h7E9KrRV-1" source="GAgwbhFQg9J5h7E9KrRV-49" target="GAgwbhFQg9J5h7E9KrRV-49" edge="1">
          <mxGeometry relative="1" as="geometry" />
        </mxCell>
      </root>
    </mxGraphModel>
  </diagram>
</mxfile>
